<svg id="my-svg" width="100%" xmlns="http://www.w3.org/2000/svg" xmlns:xlink="http://www.w3.org/1999/xlink" class="flowchart" style="max-width: 1086.77px; background-color: white;" viewBox="0 0 1086.765625 1411.09375" role="graphics-document document" aria-roledescription="flowchart-v2"><style>#my-svg{font-family:IBM Plex Sans;font-size:16px;fill:#1d2d2f;}@keyframes edge-animation-frame{from{stroke-dashoffset:0;}}@keyframes dash{to{stroke-dashoffset:0;}}#my-svg .edge-animation-slow{stroke-dasharray:9,5!important;stroke-dashoffset:900;animation:dash 50s linear infinite;stroke-linecap:round;}#my-svg .edge-animation-fast{stroke-dasharray:9,5!important;stroke-dashoffset:900;animation:dash 20s linear infinite;stroke-linecap:round;}#my-svg .error-icon{fill:#fffdf8;}#my-svg .error-text{fill:#000207;stroke:#000207;}#my-svg .edge-thickness-normal{stroke-width:1px;}#my-svg .edge-thickness-thick{stroke-width:3.5px;}#my-svg .edge-pattern-solid{stroke-dasharray:0;}#my-svg .edge-thickness-invisible{stroke-width:0;fill:none;}#my-svg .edge-pattern-dashed{stroke-dasharray:3;}#my-svg .edge-pattern-dotted{stroke-dasharray:2;}#my-svg .marker{fill:#5f7a77;stroke:#5f7a77;}#my-svg .marker.cross{stroke:#5f7a77;}#my-svg svg{font-family:IBM Plex Sans;font-size:16px;}#my-svg p{margin:0;}#my-svg .label{font-family:IBM Plex Sans;color:#1d2d2f;}#my-svg .cluster-label text{fill:#000207;}#my-svg .cluster-label span{color:#000207;}#my-svg .cluster-label span p{background-color:transparent;}#my-svg .label text,#my-svg span{fill:#1d2d2f;color:#1d2d2f;}#my-svg .node rect,#my-svg .node circle,#my-svg .node ellipse,#my-svg .node polygon,#my-svg .node path{fill:#f4ead7;stroke:#5f7a77;stroke-width:1px;}#my-svg .rough-node .label text,#my-svg .node .label text,#my-svg .image-shape .label,#my-svg .icon-shape .label{text-anchor:middle;}#my-svg .node .katex path{fill:#000;stroke:#000;stroke-width:1px;}#my-svg .rough-node .label,#my-svg .node .label,#my-svg .image-shape .label,#my-svg .icon-shape .label{text-align:center;}#my-svg .node.clickable{cursor:pointer;}#my-svg .root .anchor path{fill:#5f7a77!important;stroke-width:0;stroke:#5f7a77;}#my-svg .arrowheadPath{fill:#0b0b0b;}#my-svg .edgePath .path{stroke:#5f7a77;stroke-width:2.0px;}#my-svg .flowchart-link{stroke:#5f7a77;fill:none;}#my-svg .edgeLabel{background-color:#d8e5e1;text-align:center;}#my-svg .edgeLabel p{background-color:#d8e5e1;}#my-svg .edgeLabel rect{opacity:0.5;background-color:#d8e5e1;fill:#d8e5e1;}#my-svg .labelBkg{background-color:rgba(216, 229, 225, 0.5);}#my-svg .cluster rect{fill:#fffdf8;stroke:hsl(42.8571428571, 60%, 88.6274509804%);stroke-width:1px;}#my-svg .cluster text{fill:#000207;}#my-svg .cluster span{color:#000207;}#my-svg div.mermaidTooltip{position:absolute;text-align:center;max-width:200px;padding:2px;font-family:IBM Plex Sans;font-size:12px;background:#fffdf8;border:1px solid hsl(42.8571428571, 60%, 88.6274509804%);border-radius:2px;pointer-events:none;z-index:100;}#my-svg .flowchartTitleText{text-anchor:middle;font-size:18px;fill:#1d2d2f;}#my-svg rect.text{fill:none;stroke-width:0;}#my-svg .icon-shape,#my-svg .image-shape{background-color:#d8e5e1;text-align:center;}#my-svg .icon-shape p,#my-svg .image-shape p{background-color:#d8e5e1;padding:2px;}#my-svg .icon-shape .label rect,#my-svg .image-shape .label rect{opacity:0.5;background-color:#d8e5e1;fill:#d8e5e1;}#my-svg .label-icon{display:inline-block;height:1em;overflow:visible;vertical-align:-0.125em;}#my-svg .node .label-icon path{fill:currentColor;stroke:revert;stroke-width:revert;}#my-svg :root{--mermaid-font-family:"trebuchet ms",verdana,arial,sans-serif;}</style><g><marker id="my-svg_flowchart-v2-pointEnd" class="marker flowchart-v2" viewBox="0 0 10 10" refX="5" refY="5" markerUnits="userSpaceOnUse" markerWidth="8" markerHeight="8" orient="auto"><path d="M 0 0 L 10 5 L 0 10 z" class="arrowMarkerPath" style="stroke-width: 1; stroke-dasharray: 1, 0;"/></marker><marker id="my-svg_flowchart-v2-pointStart" class="marker flowchart-v2" viewBox="0 0 10 10" refX="4.5" refY="5" markerUnits="userSpaceOnUse" markerWidth="8" markerHeight="8" orient="auto"><path d="M 0 5 L 10 10 L 10 0 z" class="arrowMarkerPath" style="stroke-width: 1; stroke-dasharray: 1, 0;"/></marker><marker id="my-svg_flowchart-v2-circleEnd" class="marker flowchart-v2" viewBox="0 0 10 10" refX="11" refY="5" markerUnits="userSpaceOnUse" markerWidth="11" markerHeight="11" orient="auto"><circle cx="5" cy="5" r="5" class="arrowMarkerPath" style="stroke-width: 1; stroke-dasharray: 1, 0;"/></marker><marker id="my-svg_flowchart-v2-circleStart" class="marker flowchart-v2" viewBox="0 0 10 10" refX="-1" refY="5" markerUnits="userSpaceOnUse" markerWidth="11" markerHeight="11" orient="auto"><circle cx="5" cy="5" r="5" class="arrowMarkerPath" style="stroke-width: 1; stroke-dasharray: 1, 0;"/></marker><marker id="my-svg_flowchart-v2-crossEnd" class="marker cross flowchart-v2" viewBox="0 0 11 11" refX="12" refY="5.2" markerUnits="userSpaceOnUse" markerWidth="11" markerHeight="11" orient="auto"><path d="M 1,1 l 9,9 M 10,1 l -9,9" class="arrowMarkerPath" style="stroke-width: 2; stroke-dasharray: 1, 0;"/></marker><marker id="my-svg_flowchart-v2-crossStart" class="marker cross flowchart-v2" viewBox="0 0 11 11" refX="-1" refY="5.2" markerUnits="userSpaceOnUse" markerWidth="11" markerHeight="11" orient="auto"><path d="M 1,1 l 9,9 M 10,1 l -9,9" class="arrowMarkerPath" style="stroke-width: 2; stroke-dasharray: 1, 0;"/></marker><g class="root"><g class="clusters"/><g class="edgePaths"><path d="M572.914,68L572.914,72C572.914,76,572.914,84,572.914,91.333C572.914,98.667,572.914,105.333,572.914,108.667L572.914,112" id="L_A_B_0" class="edge-thickness-normal edge-pattern-solid edge-thickness-normal edge-pattern-solid flowchart-link" style=";" data-edge="true" data-et="edge" data-id="L_A_B_0" data-points="W3sieCI6NTcyLjkxNDA2MjUsInkiOjY4fSx7IngiOjU3Mi45MTQwNjI1LCJ5Ijo5Mn0seyJ4Ijo1NzIuOTE0MDYyNSwieSI6MTE2fV0=" marker-end="url(#my-svg_flowchart-v2-pointEnd)"/><path d="M572.914,176L572.914,180C572.914,184,572.914,192,572.914,199.333C572.914,206.667,572.914,213.333,572.914,216.667L572.914,220" id="L_B_C_0" class="edge-thickness-normal edge-pattern-solid edge-thickness-normal edge-pattern-solid flowchart-link" style=";" data-edge="true" data-et="edge" data-id="L_B_C_0" data-points="W3sieCI6NTcyLjkxNDA2MjUsInkiOjE3Nn0seyJ4Ijo1NzIuOTE0MDYyNSwieSI6MjAwfSx7IngiOjU3Mi45MTQwNjI1LCJ5IjoyMjR9XQ==" marker-end="url(#my-svg_flowchart-v2-pointEnd)"/><path d="M479.383,264.662L416.021,271.885C352.659,279.108,225.935,293.554,162.573,304.11C99.211,314.667,99.211,321.333,99.211,324.667L99.211,328" id="L_C_C1_0" class="edge-thickness-normal edge-pattern-solid edge-thickness-normal edge-pattern-solid flowchart-link" style=";" data-edge="true" data-et="edge" data-id="L_C_C1_0" data-points="W3sieCI6NDc5LjM4MjgxMjUsInkiOjI2NC42NjIxMzY3NTQ5NTU5NX0seyJ4Ijo5OS4yMTA5Mzc1LCJ5IjozMDh9LHsieCI6OTkuMjEwOTM3NSwieSI6MzMyfV0=" marker-end="url(#my-svg_flowchart-v2-pointEnd)"/><path d="M479.383,274.217L453.333,279.847C427.284,285.478,375.185,296.739,349.135,305.703C323.086,314.667,323.086,321.333,323.086,324.667L323.086,328" id="L_C_C2_0" class="edge-thickness-normal edge-pattern-solid edge-thickness-normal edge-pattern-solid flowchart-link" style=";" data-edge="true" data-et="edge" data-id="L_C_C2_0" data-points="W3sieCI6NDc5LjM4MjgxMjUsInkiOjI3NC4yMTY2NDg5NDYxNTA1fSx7IngiOjMyMy4wODU5Mzc1LCJ5IjozMDh9LHsieCI6MzIzLjA4NTkzNzUsInkiOjMzMn1d" marker-end="url(#my-svg_flowchart-v2-pointEnd)"/><path d="M550.661,284L547.694,288C544.727,292,538.793,300,535.826,307.333C532.859,314.667,532.859,321.333,532.859,324.667L532.859,328" id="L_C_C3_0" class="edge-thickness-normal edge-pattern-solid edge-thickness-normal edge-pattern-solid flowchart-link" style=";" data-edge="true" data-et="edge" data-id="L_C_C3_0" data-points="W3sieCI6NTUwLjY2MTQ1ODMzMzMzMzQsInkiOjI4NH0seyJ4Ijo1MzIuODU5Mzc1LCJ5IjozMDh9LHsieCI6NTMyLjg1OTM3NSwieSI6MzMyfV0=" marker-end="url(#my-svg_flowchart-v2-pointEnd)"/><path d="M661.382,284L673.178,288C684.973,292,708.565,300,720.361,307.333C732.156,314.667,732.156,321.333,732.156,324.667L732.156,328" id="L_C_C4_0" class="edge-thickness-normal edge-pattern-solid edge-thickness-normal edge-pattern-solid flowchart-link" style=";" data-edge="true" data-et="edge" data-id="L_C_C4_0" data-points="W3sieCI6NjYxLjM4MTk0NDQ0NDQ0NDUsInkiOjI4NH0seyJ4Ijo3MzIuMTU2MjUsInkiOjMwOH0seyJ4Ijo3MzIuMTU2MjUsInkiOjMzMn1d" marker-end="url(#my-svg_flowchart-v2-pointEnd)"/><path d="M666.445,268.556L708.688,275.13C750.93,281.704,835.414,294.852,877.656,304.759C919.898,314.667,919.898,321.333,919.898,324.667L919.898,328" id="L_C_D_0" class="edge-thickness-normal edge-pattern-solid edge-thickness-normal edge-pattern-solid flowchart-link" style=";" data-edge="true" data-et="edge" data-id="L_C_D_0" data-points="W3sieCI6NjY2LjQ0NTMxMjUsInkiOjI2OC41NTU5NTA4MjYzMTZ9LHsieCI6OTE5Ljg5ODQzNzUsInkiOjMwOH0seyJ4Ijo5MTkuODk4NDM3NSwieSI6MzMyfV0=" marker-end="url(#my-svg_flowchart-v2-pointEnd)"/><path d="M854.344,382.845L836.966,388.371C819.589,393.897,784.833,404.948,767.456,413.808C750.078,422.667,750.078,429.333,750.078,432.667L750.078,436" id="L_D_E_0" class="edge-thickness-normal edge-pattern-solid edge-thickness-normal edge-pattern-solid flowchart-link" style=";" data-edge="true" data-et="edge" data-id="L_D_E_0" data-points="W3sieCI6ODU0LjM0Mzc1LCJ5IjozODIuODQ1Mjg2ODM4MTEwMTZ9LHsieCI6NzUwLjA3ODEyNSwieSI6NDE2fSx7IngiOjc1MC4wNzgxMjUsInkiOjQ0MH1d" marker-end="url(#my-svg_flowchart-v2-pointEnd)"/><path d="M750.078,500L750.078,505.833C750.078,511.667,750.078,523.333,750.078,534.333C750.078,545.333,750.078,555.667,750.078,560.833L750.078,566" id="L_E_F_0" class="edge-thickness-normal edge-pattern-solid edge-thickness-normal edge-pattern-solid flowchart-link" style=";" data-edge="true" data-et="edge" data-id="L_E_F_0" data-points="W3sieCI6NzUwLjA3ODEyNSwieSI6NTAwfSx7IngiOjc1MC4wNzgxMjUsInkiOjUzNX0seyJ4Ijo3NTAuMDc4MTI1LCJ5Ijo1NzB9XQ==" marker-end="url(#my-svg_flowchart-v2-pointEnd)"/><path d="M750.078,630L750.078,635.833C750.078,641.667,750.078,653.333,754.765,668.605C759.452,683.877,768.825,702.754,773.512,712.193L778.198,721.631" id="L_F_G_0" class="edge-thickness-normal edge-pattern-solid edge-thickness-normal edge-pattern-solid flowchart-link" style=";" data-edge="true" data-et="edge" data-id="L_F_G_0" data-points="W3sieCI6NzUwLjA3ODEyNSwieSI6NjMwfSx7IngiOjc1MC4wNzgxMjUsInkiOjY2NX0seyJ4Ijo3NzkuOTc3NDMzMjYwMzgyNywieSI6NzI1LjIxMzk3Mjk4OTYxNzN9XQ==" marker-end="url(#my-svg_flowchart-v2-pointEnd)"/><path d="M830.405,725.214L835.389,715.178C840.372,705.143,850.338,685.071,855.321,664.202C860.305,643.333,860.305,621.667,860.305,600C860.305,578.333,860.305,556.667,860.305,535C860.305,513.333,860.305,491.667,860.305,471.833C860.305,452,860.305,434,864.225,421.448C868.145,408.895,875.986,401.791,879.906,398.238L883.827,394.686" id="L_G_D_0" class="edge-thickness-normal edge-pattern-solid edge-thickness-normal edge-pattern-solid flowchart-link" style=";" data-edge="true" data-et="edge" data-id="L_G_D_0" data-points="W3sieCI6ODMwLjQwNTM3OTIzOTYxNzMsInkiOjcyNS4yMTM5NzI5ODk2MTczfSx7IngiOjg2MC4zMDQ2ODc1LCJ5Ijo2NjV9LHsieCI6ODYwLjMwNDY4NzUsInkiOjYwMH0seyJ4Ijo4NjAuMzA0Njg3NSwieSI6NTM1fSx7IngiOjg2MC4zMDQ2ODc1LCJ5Ijo0NzB9LHsieCI6ODYwLjMwNDY4NzUsInkiOjQxNn0seyJ4Ijo4ODYuNzkwNzk4NjExMTExMSwieSI6MzkyfV0=" marker-end="url(#my-svg_flowchart-v2-pointEnd)"/><path d="M805.191,851.984L805.191,857.818C805.191,863.651,805.191,875.318,805.191,886.318C805.191,897.318,805.191,907.651,805.191,912.818L805.191,917.984" id="L_G_H_0" class="edge-thickness-normal edge-pattern-solid edge-thickness-normal edge-pattern-solid flowchart-link" style=";" data-edge="true" data-et="edge" data-id="L_G_H_0" data-points="W3sieCI6ODA1LjE5MTQwNjI1LCJ5Ijo4NTEuOTg0Mzc1fSx7IngiOjgwNS4xOTE0MDYyNSwieSI6ODg2Ljk4NDM3NX0seyJ4Ijo4MDUuMTkxNDA2MjUsInkiOjkyMS45ODQzNzV9XQ==" marker-end="url(#my-svg_flowchart-v2-pointEnd)"/><path d="M805.191,981.984L805.191,985.984C805.191,989.984,805.191,997.984,815.571,1011.43C825.95,1024.876,846.708,1043.768,857.088,1053.214L867.467,1062.66" id="L_H_I_0" class="edge-thickness-normal edge-pattern-solid edge-thickness-normal edge-pattern-solid flowchart-link" style=";" data-edge="true" data-et="edge" data-id="L_H_I_0" data-points="W3sieCI6ODA1LjE5MTQwNjI1LCJ5Ijo5ODEuOTg0Mzc1fSx7IngiOjgwNS4xOTE0MDYyNSwieSI6MTAwNS45ODQzNzV9LHsieCI6ODcwLjQyNTM1OTc1MTA3NzQsInkiOjEwNjUuMzUxOTgzOTk4OTIyNn1d" marker-end="url(#my-svg_flowchart-v2-pointEnd)"/><path d="M928.052,1052.244L931.841,1044.534C935.63,1036.824,943.208,1021.404,946.996,1004.694C950.785,987.984,950.785,969.984,950.785,950.151C950.785,930.318,950.785,908.651,950.785,879.319C950.785,849.987,950.785,812.99,950.785,775.992C950.785,738.995,950.785,701.997,950.785,672.665C950.785,643.333,950.785,621.667,950.785,600C950.785,578.333,950.785,556.667,950.785,535C950.785,513.333,950.785,491.667,950.785,471.833C950.785,452,950.785,434,948.828,421.579C946.871,409.157,942.958,402.315,941.001,398.893L939.044,395.472" id="L_I_D_0" class="edge-thickness-normal edge-pattern-solid edge-thickness-normal edge-pattern-solid flowchart-link" style=";" data-edge="true" data-et="edge" data-id="L_I_D_0" data-points="W3sieCI6OTI4LjA1MjIzNDQxNjEyMzIsInkiOjEwNTIuMjQzNjQwNjY2MTIzMn0seyJ4Ijo5NTAuNzg1MTU2MjUsInkiOjEwMDUuOTg0Mzc1fSx7IngiOjk1MC43ODUxNTYyNSwieSI6OTUxLjk4NDM3NX0seyJ4Ijo5NTAuNzg1MTU2MjUsInkiOjg4Ni45ODQzNzV9LHsieCI6OTUwLjc4NTE1NjI1LCJ5Ijo3NzUuOTkyMTg3NX0seyJ4Ijo5NTAuNzg1MTU2MjUsInkiOjY2NX0seyJ4Ijo5NTAuNzg1MTU2MjUsInkiOjYwMH0seyJ4Ijo5NTAuNzg1MTU2MjUsInkiOjUzNX0seyJ4Ijo5NTAuNzg1MTU2MjUsInkiOjQ3MH0seyJ4Ijo5NTAuNzg1MTU2MjUsInkiOjQxNn0seyJ4Ijo5MzcuMDU3NzI1Njk0NDQ0NSwieSI6MzkyfV0=" marker-end="url(#my-svg_flowchart-v2-pointEnd)"/><path d="M905.793,1165.094L905.793,1170.927C905.793,1176.76,905.793,1188.427,905.793,1199.427C905.793,1210.427,905.793,1220.76,905.793,1225.927L905.793,1231.094" id="L_I_J_0" class="edge-thickness-normal edge-pattern-solid edge-thickness-normal edge-pattern-solid flowchart-link" style=";" data-edge="true" data-et="edge" data-id="L_I_J_0" data-points="W3sieCI6OTA1Ljc5Mjk2ODc1LCJ5IjoxMTY1LjA5Mzc1fSx7IngiOjkwNS43OTI5Njg3NSwieSI6MTIwMC4wOTM3NX0seyJ4Ijo5MDUuNzkyOTY4NzUsInkiOjEyMzUuMDkzNzV9XQ==" marker-end="url(#my-svg_flowchart-v2-pointEnd)"/><path d="M905.793,1295.094L905.793,1299.094C905.793,1303.094,905.793,1311.094,910.807,1318.704C915.82,1326.315,925.848,1333.535,930.861,1337.146L935.875,1340.756" id="L_J_K_0" class="edge-thickness-normal edge-pattern-solid edge-thickness-normal edge-pattern-solid flowchart-link" style=";" data-edge="true" data-et="edge" data-id="L_J_K_0" data-points="W3sieCI6OTA1Ljc5Mjk2ODc1LCJ5IjoxMjk1LjA5Mzc1fSx7IngiOjkwNS43OTI5Njg3NSwieSI6MTMxOS4wOTM3NX0seyJ4Ijo5MzkuMTIxMDkzNzUsInkiOjEzNDMuMDkzNzV9XQ==" marker-end="url(#my-svg_flowchart-v2-pointEnd)"/><path d="M1006.769,1343.094L1010.234,1339.094C1013.699,1335.094,1020.629,1327.094,1024.094,1314.094C1027.559,1301.094,1027.559,1283.094,1027.559,1263.26C1027.559,1243.427,1027.559,1221.76,1027.559,1193.835C1027.559,1165.909,1027.559,1131.724,1027.559,1099.372C1027.559,1067.021,1027.559,1036.503,1027.559,1012.243C1027.559,987.984,1027.559,969.984,1027.559,950.151C1027.559,930.318,1027.559,908.651,1027.559,879.319C1027.559,849.987,1027.559,812.99,1027.559,775.992C1027.559,738.995,1027.559,701.997,1027.559,672.665C1027.559,643.333,1027.559,621.667,1027.559,600C1027.559,578.333,1027.559,556.667,1027.559,535C1027.559,513.333,1027.559,491.667,1027.559,471.833C1027.559,452,1027.559,434,1027.559,416C1027.559,398,1027.559,380,1027.559,362C1027.559,344,1027.559,326,968.035,309.93C908.512,293.86,789.464,279.721,729.941,272.651L670.417,265.581" id="L_K_C_0" class="edge-thickness-normal edge-pattern-solid edge-thickness-normal edge-pattern-solid flowchart-link" style=";" data-edge="true" data-et="edge" data-id="L_K_C_0" data-points="W3sieCI6MTAwNi43Njg2NjMxOTQ0NDQ1LCJ5IjoxMzQzLjA5Mzc1fSx7IngiOjEwMjcuNTU4NTkzNzUsInkiOjEzMTkuMDkzNzV9LHsieCI6MTAyNy41NTg1OTM3NSwieSI6MTI2NS4wOTM3NX0seyJ4IjoxMDI3LjU1ODU5Mzc1LCJ5IjoxMjAwLjA5Mzc1fSx7IngiOjEwMjcuNTU4NTkzNzUsInkiOjEwOTcuNTM5MDYyNX0seyJ4IjoxMDI3LjU1ODU5Mzc1LCJ5IjoxMDA1Ljk4NDM3NX0seyJ4IjoxMDI3LjU1ODU5Mzc1LCJ5Ijo5NTEuOTg0Mzc1fSx7IngiOjEwMjcuNTU4NTkzNzUsInkiOjg4Ni45ODQzNzV9LHsieCI6MTAyNy41NTg1OTM3NSwieSI6Nzc1Ljk5MjE4NzV9LHsieCI6MTAyNy41NTg1OTM3NSwieSI6NjY1fSx7IngiOjEwMjcuNTU4NTkzNzUsInkiOjYwMH0seyJ4IjoxMDI3LjU1ODU5Mzc1LCJ5Ijo1MzV9LHsieCI6MTAyNy41NTg1OTM3NSwieSI6NDcwfSx7IngiOjEwMjcuNTU4NTkzNzUsInkiOjQxNn0seyJ4IjoxMDI3LjU1ODU5Mzc1LCJ5IjozNjJ9LHsieCI6MTAyNy41NTg1OTM3NSwieSI6MzA4fSx7IngiOjY2Ni40NDUzMTI1LCJ5IjoyNjUuMTA5MDkxMDY1MzA2ODd9XQ==" marker-end="url(#my-svg_flowchart-v2-pointEnd)"/></g><g class="edgeLabels"><g class="edgeLabel"><g class="label" data-id="L_A_B_0" transform="translate(0, 0)"><text y="-10.1" text-anchor="middle"><tspan class="text-outer-tspan row" x="0" y="-0.1em" dy="1.1em" text-anchor="middle"/></text></g></g><g><rect class="background" style="stroke: none"/></g><g class="edgeLabel"><g class="label" data-id="L_B_C_0" transform="translate(0, 0)"><text y="-10.1" text-anchor="middle"><tspan class="text-outer-tspan row" x="0" y="-0.1em" dy="1.1em" text-anchor="middle"/></text></g></g><g><rect class="background" style="stroke: none"/></g><g class="edgeLabel"><g class="label" data-id="L_C_C1_0" transform="translate(0, 0)"><text y="-10.1" text-anchor="middle"><tspan class="text-outer-tspan row" x="0" y="-0.1em" dy="1.1em" text-anchor="middle"/></text></g></g><g><rect class="background" style="stroke: none"/></g><g class="edgeLabel"><g class="label" data-id="L_C_C2_0" transform="translate(0, 0)"><text y="-10.1" text-anchor="middle"><tspan class="text-outer-tspan row" x="0" y="-0.1em" dy="1.1em" text-anchor="middle"/></text></g></g><g><rect class="background" style="stroke: none"/></g><g class="edgeLabel"><g class="label" data-id="L_C_C3_0" transform="translate(0, 0)"><text y="-10.1" text-anchor="middle"><tspan class="text-outer-tspan row" x="0" y="-0.1em" dy="1.1em" text-anchor="middle"/></text></g></g><g><rect class="background" style="stroke: none"/></g><g class="edgeLabel"><g class="label" data-id="L_C_C4_0" transform="translate(0, 0)"><text y="-10.1" text-anchor="middle"><tspan class="text-outer-tspan row" x="0" y="-0.1em" dy="1.1em" text-anchor="middle"/></text></g></g><g><rect class="background" style="stroke: none"/></g><g class="edgeLabel"><g class="label" data-id="L_C_D_0" transform="translate(0, 0)"><text y="-10.1" text-anchor="middle"><tspan class="text-outer-tspan row" x="0" y="-0.1em" dy="1.1em" text-anchor="middle"/></text></g></g><g><rect class="background" style="stroke: none"/></g><g class="edgeLabel"><g class="label" data-id="L_D_E_0" transform="translate(0, 0)"><text y="-10.1" text-anchor="middle"><tspan class="text-outer-tspan row" x="0" y="-0.1em" dy="1.1em" text-anchor="middle"/></text></g></g><g><rect class="background" style="stroke: none"/></g><g class="edgeLabel"><g class="label" data-id="L_E_F_0" transform="translate(0, 0)"><text y="-10.1" text-anchor="middle"><tspan class="text-outer-tspan row" x="0" y="-0.1em" dy="1.1em" text-anchor="middle"/></text></g></g><g><rect class="background" style="stroke: none"/></g><g class="edgeLabel"><g class="label" data-id="L_F_G_0" transform="translate(0, 0)"><text y="-10.1" text-anchor="middle"><tspan class="text-outer-tspan row" x="0" y="-0.1em" dy="1.1em" text-anchor="middle"/></text></g></g><g><rect class="background" style="stroke: none"/></g><g class="edgeLabel" transform="translate(860.3046875, 535)"><g class="label" data-id="L_G_D_0" transform="translate(0, -11)"><g><rect class="background" style="" x="-11.78125" y="0" width="23.5625" height="22"/><text y="-10.1" text-anchor="middle" style=""><tspan class="text-outer-tspan row" x="0" y="-0.1em" dy="1.1em" text-anchor="middle"><tspan font-style="normal" class="text-inner-tspan" font-weight="normal">No</tspan></tspan></text></g></g></g><g class="edgeLabel" transform="translate(805.19140625, 886.984375)"><g class="label" data-id="L_G_H_0" transform="translate(0, -11)"><g><rect class="background" style="" x="-13.6484375" y="0" width="27.296875" height="22"/><text y="-10.1" text-anchor="middle" style=""><tspan class="text-outer-tspan row" x="0" y="-0.1em" dy="1.1em" text-anchor="middle"><tspan font-style="normal" class="text-inner-tspan" font-weight="normal">Yes</tspan></tspan></text></g></g></g><g class="edgeLabel"><g class="label" data-id="L_H_I_0" transform="translate(0, 0)"><text y="-10.1" text-anchor="middle"><tspan class="text-outer-tspan row" x="0" y="-0.1em" dy="1.1em" text-anchor="middle"/></text></g></g><g><rect class="background" style="stroke: none"/></g><g class="edgeLabel" transform="translate(950.78515625, 665)"><g class="label" data-id="L_I_D_0" transform="translate(0, -11)"><g><rect class="background" style="" x="-11.78125" y="0" width="23.5625" height="22"/><text y="-10.1" text-anchor="middle" style=""><tspan class="text-outer-tspan row" x="0" y="-0.1em" dy="1.1em" text-anchor="middle"><tspan font-style="normal" class="text-inner-tspan" font-weight="normal">No</tspan></tspan></text></g></g></g><g class="edgeLabel" transform="translate(905.79296875, 1200.09375)"><g class="label" data-id="L_I_J_0" transform="translate(0, -11)"><g><rect class="background" style="" x="-13.6484375" y="0" width="27.296875" height="22"/><text y="-10.1" text-anchor="middle" style=""><tspan class="text-outer-tspan row" x="0" y="-0.1em" dy="1.1em" text-anchor="middle"><tspan font-style="normal" class="text-inner-tspan" font-weight="normal">Yes</tspan></tspan></text></g></g></g><g class="edgeLabel"><g class="label" data-id="L_J_K_0" transform="translate(0, 0)"><text y="-10.1" text-anchor="middle"><tspan class="text-outer-tspan row" x="0" y="-0.1em" dy="1.1em" text-anchor="middle"/></text></g></g><g><rect class="background" style="stroke: none"/></g><g class="edgeLabel"><g class="label" data-id="L_K_C_0" transform="translate(0, 0)"><text y="-10.1" text-anchor="middle"><tspan class="text-outer-tspan row" x="0" y="-0.1em" dy="1.1em" text-anchor="middle"/></text></g></g><g><rect class="background" style="stroke: none"/></g></g><g class="nodes"><g class="node default" id="flowchart-A-0" transform="translate(572.9140625, 38)"><rect class="basic label-container" style="" x="-81.9921875" y="-30" width="163.984375" height="60"/><g class="label" style="" transform="translate(-45.9921875, -12)"><rect/><foreignObject width="91.984375" height="24"><div xmlns="http://www.w3.org/1999/xhtml" style="display: table-cell; white-space: nowrap; line-height: 1.5; max-width: 200px; text-align: center;"><span class="nodeLabel"><p>User Question</p></span></div></foreignObject></g></g><g class="node default" id="flowchart-B-1" transform="translate(572.9140625, 146)"><rect class="basic label-container" style="" x="-126.609375" y="-30" width="253.21875" height="60"/><g class="label" style="" transform="translate(-90.609375, -12)"><rect/><foreignObject width="181.21875" height="24"><div xmlns="http://www.w3.org/1999/xhtml" style="display: table-cell; white-space: nowrap; line-height: 1.5; max-width: 200px; text-align: center;"><span class="nodeLabel"><p>Domain and Table Selection</p></span></div></foreignObject></g></g><g class="node default" id="flowchart-C-3" transform="translate(572.9140625, 254)"><rect class="basic label-container" style="" x="-93.53125" y="-30" width="187.0625" height="60"/><g class="label" style="" transform="translate(-57.53125, -12)"><rect/><foreignObject width="115.0625" height="24"><div xmlns="http://www.w3.org/1999/xhtml" style="display: table-cell; white-space: nowrap; line-height: 1.5; max-width: 200px; text-align: center;"><span class="nodeLabel"><p>Knowledge Layer</p></span></div></foreignObject></g></g><g class="node default" id="flowchart-C1-5" transform="translate(99.2109375, 362)"><rect class="basic label-container" style="" x="-91.2109375" y="-30" width="182.421875" height="60"/><g class="label" style="" transform="translate(-55.2109375, -12)"><rect/><foreignObject width="110.421875" height="24"><div xmlns="http://www.w3.org/1999/xhtml" style="display: table-cell; white-space: nowrap; line-height: 1.5; max-width: 200px; text-align: center;"><span class="nodeLabel"><p>Table Definitions</p></span></div></foreignObject></g></g><g class="node default" id="flowchart-C2-7" transform="translate(323.0859375, 362)"><rect class="basic label-container" style="" x="-96.6640625" y="-30" width="193.328125" height="60"/><g class="label" style="" transform="translate(-60.6640625, -12)"><rect/><foreignObject width="121.328125" height="24"><div xmlns="http://www.w3.org/1999/xhtml" style="display: table-cell; white-space: nowrap; line-height: 1.5; max-width: 200px; text-align: center;"><span class="nodeLabel"><p>Column Semantics</p></span></div></foreignObject></g></g><g class="node default" id="flowchart-C3-9" transform="translate(532.859375, 362)"><rect class="basic label-container" style="" x="-77.109375" y="-30" width="154.21875" height="60"/><g class="label" style="" transform="translate(-41.109375, -12)"><rect/><foreignObject width="82.21875" height="24"><div xmlns="http://www.w3.org/1999/xhtml" style="display: table-cell; white-space: nowrap; line-height: 1.5; max-width: 200px; text-align: center;"><span class="nodeLabel"><p>Join Patterns</p></span></div></foreignObject></g></g><g class="node default" id="flowchart-C4-11" transform="translate(732.15625, 362)"><rect class="basic label-container" style="" x="-86.1875" y="-30" width="172.375" height="60"/><g class="label" style="" transform="translate(-50.1875, -12)"><rect/><foreignObject width="100.375" height="24"><div xmlns="http://www.w3.org/1999/xhtml" style="display: table-cell; white-space: nowrap; line-height: 1.5; max-width: 200px; text-align: center;"><span class="nodeLabel"><p>Business Terms</p></span></div></foreignObject></g></g><g class="node default" id="flowchart-D-13" transform="translate(919.8984375, 362)"><rect class="basic label-container" style="" x="-65.5546875" y="-30" width="131.109375" height="60"/><g class="label" style="" transform="translate(-29.5546875, -12)"><rect/><foreignObject width="59.109375" height="24"><div xmlns="http://www.w3.org/1999/xhtml" style="display: table-cell; white-space: nowrap; line-height: 1.5; max-width: 200px; text-align: center;"><span class="nodeLabel"><p>AI Agent</p></span></div></foreignObject></g></g><g class="node default" id="flowchart-E-15" transform="translate(750.078125, 470)"><rect class="basic label-container" style="" x="-72.8125" y="-30" width="145.625" height="60"/><g class="label" style="" transform="translate(-36.8125, -12)"><rect/><foreignObject width="73.625" height="24"><div xmlns="http://www.w3.org/1999/xhtml" style="display: table-cell; white-space: nowrap; line-height: 1.5; max-width: 200px; text-align: center;"><span class="nodeLabel"><p>SQL Query</p></span></div></foreignObject></g></g><g class="node default" id="flowchart-F-17" transform="translate(750.078125, 600)"><rect class="basic label-container" style="" x="-82.2265625" y="-30" width="164.453125" height="60"/><g class="label" style="" transform="translate(-46.2265625, -12)"><rect/><foreignObject width="92.453125" height="24"><div xmlns="http://www.w3.org/1999/xhtml" style="display: table-cell; white-space: nowrap; line-height: 1.5; max-width: 200px; text-align: center;"><span class="nodeLabel"><p>Run in Athena</p></span></div></foreignObject></g></g><g class="node default" id="flowchart-G-19" transform="translate(805.19140625, 775.9921875)"><polygon points="75.9921875,0 151.984375,-75.9921875 75.9921875,-151.984375 0,-75.9921875" class="label-container" transform="translate(-75.4921875, 75.9921875)"/><g class="label" style="" transform="translate(-45.9921875, -12)"><rect/><foreignObject width="91.984375" height="24"><div xmlns="http://www.w3.org/1999/xhtml" style="display: table-cell; white-space: nowrap; line-height: 1.5; max-width: 200px; text-align: center;"><span class="nodeLabel"><p>Execution OK</p></span></div></foreignObject></g></g><g class="node default" id="flowchart-H-23" transform="translate(805.19140625, 951.984375)"><rect class="basic label-container" style="" x="-91.1875" y="-30" width="182.375" height="60"/><g class="label" style="" transform="translate(-55.1875, -12)"><rect/><foreignObject width="110.375" height="24"><div xmlns="http://www.w3.org/1999/xhtml" style="display: table-cell; white-space: nowrap; line-height: 1.5; max-width: 200px; text-align: center;"><span class="nodeLabel"><p>Result Validation</p></span></div></foreignObject></g></g><g class="node default" id="flowchart-I-25" transform="translate(905.79296875, 1097.5390625)"><polygon points="67.5546875,0 135.109375,-67.5546875 67.5546875,-135.109375 0,-67.5546875" class="label-container" transform="translate(-67.0546875, 67.5546875)"/><g class="label" style="" transform="translate(-37.5546875, -12)"><rect/><foreignObject width="75.109375" height="24"><div xmlns="http://www.w3.org/1999/xhtml" style="display: table-cell; white-space: nowrap; line-height: 1.5; max-width: 200px; text-align: center;"><span class="nodeLabel"><p>Quality OK</p></span></div></foreignObject></g></g><g class="node default" id="flowchart-J-29" transform="translate(905.79296875, 1265.09375)"><rect class="basic label-container" style="" x="-93.765625" y="-30" width="187.53125" height="60"/><g class="label" style="" transform="translate(-57.765625, -12)"><rect/><foreignObject width="115.53125" height="24"><div xmlns="http://www.w3.org/1999/xhtml" style="display: table-cell; white-space: nowrap; line-height: 1.5; max-width: 200px; text-align: center;"><span class="nodeLabel"><p>Deliver to Human</p></span></div></foreignObject></g></g><g class="node default" id="flowchart-K-31" transform="translate(980.78125, 1373.09375)"><rect class="basic label-container" style="" x="-97.984375" y="-30" width="195.96875" height="60"/><g class="label" style="" transform="translate(-61.984375, -12)"><rect/><foreignObject width="123.96875" height="24"><div xmlns="http://www.w3.org/1999/xhtml" style="display: table-cell; white-space: nowrap; line-height: 1.5; max-width: 200px; text-align: center;"><span class="nodeLabel"><p>Update Knowledge</p></span></div></foreignObject></g></g></g></g></g></svg>